<svg xmlns="http://www.w3.org/2000/svg" viewBox="0 0 552 552" version="1.1">
	<path d="M 281.22177481018275 35.75 C 276.8811835444575 42.7625, 264.18874937237985 63.35, 253.01636553889912 81.5 C 241.84398170541843 99.65, 232.56960474407163 114.66267405594364, 232.40663895812847 114.86149790209697 C 232.1502354086694 115.17431902326531, 203.58382588821578 100.57083771353251, 188.32049038204983 92.32414520161504 C 185.47176009217722 90.7849925871374, 182.94474745273064 89.7449065744877, 182.70490673883518 90.01284295128238 C 182.46506602493972 90.28077932807707, 183.5513771259827 99.275, 185.1189314078196 110 C 193.0789374388536 164.46131318833838, 202.81164766469087 232.51993822168058, 202.6614650144722 232.6709404848497 C 202.4198763280842 232.91384762723618, 186.6739611019141 215.27309240648322, 164.19219710975375 189.5723381564939 C 153.5729055201183 177.43255217042227, 144.52202483177797 167.37053977055322, 144.07912891344188 167.21231060122938 C 143.15546534030346 166.8823221911726, 143.1546501010754 166.8842882864915, 134.9412256177971 189.25 C 130.62228508654627 201.0107678778082, 128.3309922243929 206, 127.24882837086189 206 C 126.40114269215155 206, 110.25380366932785 203.525, 91.365852764587 200.5 C 52.80223215091435 194.32384288562085, 51.622107483171646 194.21025840003276, 52.40395157604131 196.75 C 52.700251380476836 197.7125, 56.131328767400184 209.975, 60.02856799142653 224 C 63.92580721545287 238.025, 68.8887045544836 255.65245397741796, 71.05722874482812 263.17211994981767 C 73.22575293517265 270.69178592221743, 75 277.06372123447096, 75.00000000000001 277.33197619927 C 75.00000000000003 277.6002311640691, 68.81250000000003 282.41118782049324, 61.250000000000014 288.0229909913237 C 53.68750000000001 293.6347941621542, 47.37277534886828 298.5570328032958, 47.21727855304063 298.96129908274946 C 47.0098493856149 299.5005810487799, 153.30252922285806 393.31582481277354, 166.2261363800703 404 C 167.96102669215534 405.4342645825933, 167.78032197396462 406.4677140921132, 162.10268074565943 427.5820251157555 C 154.7686009415615 454.8563870962082, 155.002174766724 453.5516486187024, 157.5 453.29250301009233 C 159.89009575855033 453.04453417234714, 255.50665916990963 440.47777838677433, 268.75 438.6710657688237 C 274.7776123140042 437.84875338076813, 278 437.75928464436845, 278 438.4142419808935 C 278 438.96704718401344, 277.33195261381405 445.06249032140687, 276.5154502529201 451.9596711751012 C 274.85405167095234 465.9938822671032, 268 528.2605575350725, 268 529.3195746474149 C 268 529.6938085913367, 277.675 530, 289.5 530 L 311 530 311 527.7128150233514 C 311 525.6191568085917, 307.25501116520445 490.14667561653573, 303.5345311678192 457 C 302.70112741112973 449.575, 302.0149199979066 442.1232786848343, 302.009625805101 440.4406192996318 L 302 437.3812385992636 359.75 445.15104847418286 C 423.79530229580416 453.76784193253997, 424.36949457738956 453.82265832438, 423.63546882307503 451.25 C 421.407346087696 443.44073926327445, 412 407.0240321265777, 412 406.2080235936802 C 412.00000000000006 405.63729032191156, 424.0654820202056 394.6695032203372, 438.8121822671235 381.83516336795947 C 504.66706166622953 324.52038182405965, 531.8854860401719 300.419767392294, 531.9406270187837 299.3743747214834 C 531.9732821584527 298.7552808182992, 526.1367464199735 293.9200469030935, 518.970547599941 288.6294104654707 C 511.8043487799087 283.3387740278479, 505.7044685240904 278.39343225535737, 505.41525814256704 277.6397620821584 C 505.1260477610437 276.88609190895954, 508.2566813667888 264.1713258241652, 512.3722217108896 249.3847263381711 C 525.158287832321 203.44605901103608, 527.1559881289213 195.82265479559868, 526.5633679139573 195.23003458062178 C 525.917409075431 194.58407574208132, 521.3017525967497 195.2376301341351, 481.204930164559 201.65256761459796 C 465.64264175506645 204.14231870070094, 452.3285944794263 205.95633513601237, 451.61815844091416 205.68371524862332 C 450.90772240240204 205.41109536123426, 447.25791661821626 196.59573311272578, 443.50747892050134 186.09402136304888 C 439.7570412227864 175.59230961337198, 436.1960884984266 167.0328905659637, 435.5942506441462 167.073090146586 C 434.9924127898658 167.1132897272083, 429.0101776846995 173.56990968573152, 422.3003948548877 181.42113449885983 C 403.257077882381 203.7040259919377, 377.8309639474937 232.1642972808297, 377.3746451478256 231.70797848115916 C 377.1473924483116 231.48072578164394, 378.983545239343 217.55011741021997, 381.4549846834509 200.75107098910587 C 388.66821285598724 151.72079626179408, 397.03910746468654 90.70577413135422, 396.61123945347447 90.277906120141 C 396.3943211947942 90.06098786146015, 385.3398342997349 95.59650096640084, 372.0457130200093 102.57904635334253 C 358.24888118996995 109.82563320343938, 347.51117755684373 114.89375602174563, 347.0278822342639 114.38729171025463 C 346.2830831643623 113.6067872639808, 316.72367283217056 65.73927220583084, 297.5410625049275 34.25 C 293.771766072035 28.0625, 290.33363786324 23, 289.9007775964941 23 C 289.46791732974816 23, 285.5623660759081 28.7375, 281.22177481018275 35.75 M 285.2397740379297 117.74975425347525 C 285.096649758791 157.21238941406386, 284.984149758791 191.71697362110461, 284.9897740379297 194.4266080468991 L 285 199.35321609379824 277.9102633010045 187.4266080468991 C 244.30921313086225 130.90172251761607, 238.86420379509565 121.12225462168958, 239.90771989216935 119.17242695871673 C 240.48339312559096 118.09677168276444, 247.39599392332107 106.93043482234542, 255.2690549982363 94.35834504667446 C 263.1421160731515 81.78625527100351, 272.6728676847863 66.325, 276.44850302409134 60 C 282.5455226644621 49.78618278521485, 284.95853396285383 46.000551689107645, 285.37244471544216 45.999754253475245 C 285.442600121949 45.999619092886626, 285.38289831706834 78.28711909288663, 285.2397740379297 117.74975425347525 M 317.6748022852596 83.5 C 329.5372412437504 102.75, 339.4534968007285 119.240793668021, 339.710925745211 120.1462081511578 C 340.09456248046257 121.49551351795857, 318.94526509540736 158.78640610001975, 297.86101508788414 193.93686391043693 L 294 200.37372782087385 294.0588073724806 122.93686391043693 C 294.0980699791271 71.2363202642268, 294.4481585068136 45.99852845849995, 295.1121730983006 47 C 295.6591801926373 47.825, 305.8123633267688 64.25, 317.6748022852596 83.5 M 212.52401626128267 114.8637239779781 L 230.50034299668462 124.2274479559562 249.46156799514716 156.3637239779781 C 259.89024174430153 174.03867579009014, 272.40140752930154 195.15985694220927, 277.26415862848046 203.29968209379837 C 285.4238837484961 216.95835686602186, 286.08218228838524 218.45646021171865, 285.8027621316756 222.73115535495666 L 285.5 227.36294652231658 278.1792876551435 229.15754760158802 C 259.36374052343695 233.7699950792392, 244.0948540477595 248.90192912734835, 239.99433999441925 267 C 239.3089600388076 270.025, 238.5920756199645 273.06744707119367, 238.40126350810124 273.76099349154146 C 238.12770075720437 274.75531436966776, 229.22981020278473 274.9667925534998, 196.32651899692465 274.76099349154146 L 154.59870559822673 274.5 153.27536868243277 270 C 152.54753337874612 267.525, 148.40334750992852 253.36504499054533, 144.06606675172702 238.53343331232293 L 136.1801017368152 211.56686662464585 141.4178193479039 197.22354730843776 L 146.65553695899263 182.88022799222966 156.0777684794963 193.68780096356386 C 190.26373378509433 232.9000951883186, 214.51919117740147 259.2395653111894, 214.78183869344178 257.4356857584113 C 215.04195451116465 255.6491940678808, 194.73641386184923 112.4362608231755, 193.47378484429123 107.15212787757909 C 193.16522517594203 105.86079821024758, 193.2806247740659 104.96079821024757, 193.7302283956776 105.15212787757909 C 194.17983201728933 105.34345754491059, 202.63703655681158 109.71367579009015, 212.52401626128267 114.8637239779781 M 381.480379426797 138.624775931297 C 378.94900125377535 156.70614916908366, 373.9756241119811 191.03277202728884, 370.4284302228099 214.90616006064192 C 366.88123633363864 238.779548093995, 364.1631493866299 258.496482719962, 364.3882370072349 258.7215703405686 C 364.98290560548395 259.31623893882187, 386.6661227685305 235.52803277840502, 418.3693636954646 199.5 C 426.1130149204142 190.7, 432.6295607091541 183.5, 432.850576559331 183.5 C 433.3779483322868 183.5, 443 209.84823438567227, 443 211.29234584569005 C 443 211.9036520309553, 438.95 226.27040417839922, 434 243.21846172889877 C 429.05 260.16651927939836, 425 274.250661661055, 425 274.5165559103581 C 425 274.78245015966115, 406.19003438211894 275, 383.20007640470874 275 L 341.4001528094174 275 340.12452043877965 268.823998850968 C 336.04768220843187 249.08590018351413, 319.8787468794639 232.88752630604895, 300.25 228.87687944510378 L 294 227.59984719058258 294 222.76925121300093 C 294 217.2573955722245, 293.0618330977172 219.0519126706665, 318.18939341348914 176.5 C 327.28333078494944 161.1, 337.92952452459883 143.0275599766883, 341.8476017238212 136.33902217041845 L 348.97137844967995 124.17804434083689 367.23568922484 114.72442209830317 C 377.281060151178 109.52492986490961, 385.63114916908364 105.37851905730496, 385.7914425979637 105.51017585918171 C 385.9517360268437 105.64183266105849, 384.0117575998187 120.54340269351036, 381.480379426797 138.624775931297 M 104.71399550978398 211.58815609824563 L 127.92799101956797 215.2736112894272 129.9188263878496 221.3868056447136 C 131.0137858404045 224.74906254012112, 134.42882080490614 236.275, 137.50779297563105 247 C 140.58676514635593 257.725, 143.3074793058463 267.1003156148356, 143.5538244411652 267.83403469963474 C 143.84255864608838 268.69400620389115, 143.15521564904427 268.51632596982074, 141.61961099125574 267.33403469963474 C 138.3749695320422 264.835923449024, 72 206.87544947105542, 72 206.54024933650913 C 72 206.39327848281502, 74.1375 206.63970564604233, 76.75 207.08786525479198 C 79.3625 207.53602486354163, 91.9462979794028 209.56115574309578, 104.71399550978398 211.58815609824563 M 506.45 207.8473924649939 C 483.7391003541554 228.10533481564886, 436 269.1771716103219, 436 268.4583147638857 C 436 268.08788314349977, 439.42915198194027 255.95847302387625, 443.62033773764506 241.50407005361114 L 451.24067547529006 215.22333738040186 462.87033773764506 213.46795073202173 C 469.26665198194024 212.50248807541266, 480.575 210.70108860021062, 488 209.46484078712828 C 502.851301185704 206.9921285161177, 507.9055668838475 206.5490383495549, 506.45 207.8473924649939 M 512.4017112053587 216.25 C 511.99852593069323 217.4875, 508.20383062868484 231.1, 503.9690549786734 246.5 L 496.2694628877436 274.5 469.41798960723713 274.7667418366347 C 453.8022703647409 274.9218679851183, 442.9710406290365 274.6632129479966, 443.5332581633653 274.14860185291434 C 444.0649661735144 273.661916851719, 456.875 262.5389240298699, 472 249.43084002658298 C 487.125 236.32275602329605, 502.37758098479577 222.98841901597024, 505.8946244106573 219.79898001030338 C 513.0756678478896 213.28683407781855, 513.4301124946666 213.09351915735445, 512.4017112053587 216.25 M 102.22155247295926 244.75 L 136.4661445515193 274.5 110.550324955961 274.7672526802013 C 96.29662417840393 274.91424165431204, 84.30082542611409 274.689241654312, 83.8929943953169 274.2672526802013 C 83.27110788094838 273.62377723965255, 67 217.02662571777356, 67 215.50694143123695 C 67 214.26134391030433, 69.85992923411979 216.63582976410336, 102.22155247295926 244.75 M 298.875 237.625 C 303.2863733617728 238.50727467235455, 302.8216826878387 239.19156844215064, 296.02021587546574 241.82889540851573 C 289.69473978297486 244.28165289951403, 288.9084816545386 244.22324629766115, 281 240.71312981366236 C 276.6973315754468 238.80342476256223, 276.609628653026 238.68259077066162, 279 237.95760038396253 C 282.1406542402638 237.00505209684408, 294.7224991164758 236.79449982329515, 298.875 237.625 M 280.5801261821647 246.40424833861965 L 286.5 248.8084966772393 286.79536353672734 254.81356328695844 L 287.0907270734547 260.8186298966776 280.4946297530673 265.78492899201217 L 273.8985324326799 270.75122808734676 268.69926621633994 269.2617720353393 C 265.839669797353 268.4425712067352, 263.20555689264677 267.4860448870822, 262.84568198365946 267.1361579916659 C 262.4858070746722 266.78627109624966, 262.0358070746722 263.51038086330794, 261.84568198365946 259.85640191846215 L 261.5 253.2128038369243 267.4247912397956 248.60640191846215 C 270.6834264216832 246.07288086330797, 273.6444832036573 244, 274.0049174219603 244 C 274.36535164026327 244, 277.32419558235523 245.08191175237886, 280.5801261821647 246.40424833861965 M 312.50272083540847 249.0898046169884 L 318 253.24029066163314 317.98468722548296 259.37014533081657 C 317.96592277069806 266.881741655141, 317.7146835627161 267.2720644457075, 311.56568056125275 269.3426516683901 L 306.63136112250544 271.0042118888149 299.56568056125275 266.1106149345778 L 292.5 261.21701798034076 292.20549225235004 255.23216413462035 L 291.9109845047 249.24731028889994 298.20549225235004 246.67043487866707 C 305.49839593762056 243.68483140827868, 305.29925114982416 243.6511322287251, 312.50272083540847 249.0898046169884 M 256.9423703151663 265.059552975697 C 256.9898176476826 267.9901831558699, 256.10768000759555 269.5803561911816, 251.94968173066405 274.059552975697 L 246.8993634613281 279.5 247.54747798650772 274.5 C 248.36126367458448 268.22189901274606, 250.57505940556382 261.5296153815446, 253.33516272714868 257.0038835741128 L 255.46733559340046 253.50776714822564 256.1760381118665 257.5038835741128 C 256.5658244970228 259.7017476083508, 256.91067398850765 263.10179883906363, 256.9423703151663 265.059552975697 M 328.43702987661607 261.6398335002869 C 330.1244396690812 265.0859736147314, 331.43277475871537 269.71644194926324, 331.76280014720794 273.4104219740766 L 332.3068516418725 279.5 327.6931312223461 274.5 L 323.0794108028196 269.5 323.03970540140983 261.62755528455784 C 322.9933550957187 252.43761622989962, 323.932190500248 252.4397519591269, 328.43702987661607 261.6398335002869 M 296.5 270.84711613589536 C 299.25 272.78809683498923, 301.6317061932127 274.4607394563458, 301.7926804293616 274.5640997389098 C 301.9536546655105 274.6674600214738, 301.0760044526991 278.1828213321771, 299.84234662311417 282.3760137626949 L 297.5993323875051 290 289.8420113462357 290 L 282.08469030496633 290 280.04234515248316 283.14218709929054 C 278.91905531861744 279.37039000390035, 278.01462991231836 275.88289000390034, 278.03251091626305 275.39218709929054 C 278.08473133974377 273.9591180411286, 289.3796722188045 266.1220404549052, 290.49009573235065 266.74840048845203 C 291.0455430795578 267.06171339545193, 293.75 268.90613543680143, 296.5 270.84711613589536 M 269.2179522808336 275.3177062711387 C 272.23413723911915 276.577948813807, 272.7602822440866 277.4613105829718, 274.89502604838935 284.8491279888022 L 277.2478246620843 292.9915788607216 273.6016475216186 297.44125754310403 L 269.9554703811528 301.89093622548654 265.22773519057637 300.4345109073736 C 262.6274808357594 299.6334769824115, 259.58747956368194 298.7343259913677, 258.4721768081821 298.43639759394296 C 257.07579386505705 298.06338485781816, 255.752329908874 295.964926335713, 254.22197117203697 291.6973547993126 C 251.2978287770788 283.54306616572273, 251.33225943566558 283.2941526942262, 256.16415027096076 277.6565388049761 C 260.66350825690853 272.40690797950276, 261.77486804617405 272.2077871080534, 269.2179522808336 275.3177062711387 M 324.0793642308626 278.09479185874136 L 328.344965123628 283.1895837174827 325.878197959147 290.79225026333376 L 323.41143079466593 298.3949168091848 316.51127740227787 300.1363061093189 C 308.57104929875095 302.14017870081227, 309.18135020274 302.31219006603203, 305.52825867017145 297.0407772742871 L 302.7238191669177 292.99396975815233 305.01013923328196 284.96439091171993 C 307.4570031739513 276.3709803795976, 307.6594064115542 276.10221415090365, 313 274.35485337915225 C 318.74105649701335 272.4764672512521, 319.62535872292784 272.7749713759808, 324.0793642308626 278.09479185874136 M 198.4493296081088 288.75 C 197.71692605588615 291.3625, 191.21245022125794 316.2162570378038, 183.99493886449062 343.9805711951196 C 176.77742750772325 371.74488535243535, 170.68682266923415 394.6465106640994, 170.46026144562592 394.8730718877064 C 170.23370022201766 395.0996331113134, 169.27059102530617 394.6583760735096, 168.32001878626704 393.89250069258685 C 160.80566948800035 387.8381947757488, 61.5 300.40324653715237, 61.5 299.84144739847727 C 61.5 299.44358963515504, 66 295.72808413586864, 71.5 291.58476851117416 L 81.5 284.05146737536603 140.6404862151659 284.025733687683 L 199.78097243033181 284 198.4493296081088 288.75 M 238.3949088503 285.25 C 238.5775854419924 285.9375, 239.2507304712544 288.75, 239.89078669310447 291.5 C 244.1922903281294 309.98139990285034, 259.87700561817934 325.31768339136835, 278.86141581563123 329.60490690437416 L 285.92428655725837 331.19990538986247 285.6247413408081 342.30690311394426 L 285.32519612435783 353.41390083802605 280.603916671829 354.6183101142322 C 272.07751774456875 356.79341414352785, 265.4224961036575 360.79348551574174, 259.11877660097116 367.53218152783063 L 253.06844974697634 374 235.03422487348817 374 L 217 374 217 404.980947971785 L 217 435.96189594356997 214.75 436.47058045335854 C 211.63374703324087 437.1751091701465, 167.63690284937357 442.9871908339283, 167.45716183997843 442.7180703039794 C 167.37705685092357 442.59813163679075, 174.640410789136 414.6, 183.59794836933946 380.5 C 192.5554859495429 346.4, 201.8098732620893 310.7375, 204.16325350833148 301.25 L 208.44212668331724 284 223.25244813799733 284 C 234.25689769767604 284, 238.14812084380864 284.3212178671009, 238.3949088503 285.25 M 372.8447834894405 291.75 C 373.9799195025673 296.0125, 378.105610806106 311.875, 382.012986386193 327 C 385.92036196628004 342.125, 394.29712948274994 374.2312823748532, 400.6280253116817 398.3472941663405 C 406.9589211406135 422.46330595782774, 411.9950273755026 442.3250809550169, 411.8193725003243 442.484571937872 C 411.64371762514594 442.64406292072704, 400.5875 441.3902757583032, 387.25 439.6983782435967 L 363 436.6222009441305 363 405.3111004720653 L 363 374 344.90813667198427 374 L 326.8162733439686 374 320.5687876084435 367.53351272160853 C 314.00321091505356 360.73778401402785, 305.3125621402771 355.7354494429175, 297.89444010545253 354.48216577029893 L 294 353.8242043381141 294 342.4311541972719 L 294 331.03810405642975 296.75 330.47310247107794 C 319.62781842222745 325.7727374972787, 335.889599432477 310.53363489214416, 340.20598238963873 289.75 L 341.40015280941753 284 356.09052631931365 284 L 370.78089982920983 284 372.8447834894405 291.75 M 507.79038721250265 291.53838130138377 C 513.4056742456262 295.6844910171448, 518 299.47687597481627, 518 299.96590342954255 C 518 300.45493088426883, 516.717845395137 301.90015929864614, 515.1507675447489 303.1775221281588 C 511.0817259261904 306.49429577408796, 417.151671244634 388.68506619402865, 413.26498047192837 392.32972546442954 C 411.485719731489 393.99818831144654, 409.7295131274162 395.0628464607482, 409.36229912954445 394.6956324628777 C 408.5444401591755 393.87777349251155, 407.01198511234304 388.2000337880232, 392.440382419249 332 C 386.09447918974803 307.525, 380.66901737250686 286.7125, 380.3838006031575 285.75 C 379.8940519555818 284.09728135247127, 383.13708976978523 284, 438.72299954194557 284 L 497.5807744250053 284 507.79038721250265 291.53838130138377 M 301.81325320153445 300.6886578958206 L 304.8631858973907 305.37731579164125 302.2593972388003 309.9386578958206 C 298.12164288983604 317.1872159024063, 298.4569822798767 317, 289.6111866773682 317 L 281.4672627856208 317 278.23363139281037 311.5937291287388 C 274.31892853047293 305.0487827562631, 274.33193838835217 305.83134480282575, 278.0480406785607 300.43017526718864 L 281.0960813571215 296 289.92970093139985 296 L 298.7633205056782 296 301.81325320153445 300.6886578958206 M 271.19414236287184 309.9496220412899 C 272.0199979278278 311.35232991858044, 273.7129976115337 314.1949279024452, 274.95636388221834 316.2665064498783 L 277.2170298289177 320.0330128997566 274.3696572487187 318.95044377428974 C 268.2225178034273 316.61330552280486, 255 306.35902666749564, 255 303.9289577220161 C 255 303.57353344090984, 258.30583202780053 304.2089470297659, 262.34629339511235 305.34098791947406 C 267.92898247538596 306.9051242244331, 270.05306107902084 308.0115062576031, 271.19414236287184 309.9496220412899 M 323.04721450469276 305.9117788909996 C 320.77209398448707 310.1628804689575, 304.92114934783575 321.25448268116907, 303.3567373344329 319.69007066776624 C 303.1123201024281 319.4456534357614, 304.4979735545373 316.61345380218245, 306.4359672280089 313.39629370425735 C 309.72075847362646 307.9433866746467, 310.3507003157065 307.4347181882643, 315.7297960444332 305.8916678468322 C 323.72965935172846 303.5968226850686, 324.2853241469476 303.59834986289775, 323.04721450469276 305.9117788909996 M 303.5 365.95563989376444 C 306.8 367.52933298781215, 310.85 369.96691423661673, 312.5 371.3724871133301 L 315.5 373.92807416189993 290.07568597329055 373.96403708095 L 264.65137194658104 374 266.8768600295 371.6310764919979 C 269.93661969487147 368.37411157910196, 278.0689835242876 364.08739189723303, 283.22251702673003 363.0149777742238 C 289.56547758702266 361.69505223511084, 296.7507144837335 362.73706292203565, 303.5 365.95563989376444 M 354 409 C 354 433.10730825932177, 353.87260728668514 434.99769352357083, 352.25 434.9683158192803 C 351.2875 434.95088951988447, 345.775 434.29014740120834, 340 433.5 C 334.225 432.70985259879166, 329.1625 432.04911048011553, 328.75 432.0316841807197 C 328.3375 432.0142578813239, 328 425.91965284334555, 328 418.4881174296567 L 328 404.9762348593134 289.75 405.2381174296567 L 251.5 405.5 251.22155349741865 418.6669081748171 L 250.94310699483734 431.8338163496342 247.22155349741865 432.398480277266 C 235.81957874398742 434.128479282116, 226.85821265157995 435.0304045882516, 226.04778751951486 434.5295343112982 C 225.5279206699974 434.20823892867213, 225.08554464011067 422.84387960399295, 225.0337596168697 408.4798013412262 L 224.94190046096054 383 289.4709502304803 383 L 354 383 354 409 M 319 422.475 L 319 430.95 316.25 430.4724383419416 C 299.737496735294 427.604897091837, 289.6783194015301 427.09279439410824, 277.7496665363734 428.5124247169703 C 271.01234994136803 429.3142335248139, 264.2625 430.19070065761343, 262.75 430.4601294565248 L 260 430.95 260 422.475 L 260 414 289.5 414 L 319 414 319 422.475 M 296.8243439269535 476.25 C 299.16266921723405 498.3875, 301.0587794524207 517.5125, 301.0379222273682 518.75 C 301.0008309154284 520.9507001607323, 300.74802304374276 521, 289.5 521 C 278.9455602997062 521, 278 520.8467075046459, 278 519.1356411673383 C 278 518.1102438093744, 280.025 499.1492052840722, 282.5 477 C 284.975 454.8507947159278, 287 436.56475619062553, 287 436.36435883266165 C 287 436.16396147469777, 288.2538897648134 436, 289.7864216995853 436 L 292.5728433991705 436 296.8243439269535 476.25" stroke="none" fill="#000000" fill-rule="evenodd" data-fill-layer-id="trace-color" data-layer-label="Trace color"/>
</svg>